#!OML:ASF F:\VICON\USERDATA\INSTALL\rory3\rory3.ASF
:FULLY-SPECIFIED
:DEGREES
645
root -0.101049 17.975 4.17958 177.989 229.724 186.873
lowerback 11.9347 0.101068 -3.45655
upperback 2.22575 -0.336475 0.139037
thorax -4.33767 -0.138604 2.14897
lowerneck -14.4153 -5.08179 -12.276
upperneck 35.3507 -8.24791 9.77003
head 15.9162 -4.08166 4.85142
rclavicle -4.47266e-015 4.37326e-015
rhumerus -34.5299 21.1575 -93.9774
rradius 86.4167
rwrist 2.51039
rhand -19.0429 11.3103
rfingers 7.12502
rthumb 7.26373 -18.545
lclavicle -4.47266e-015 4.37326e-015
lhumerus -29.0843 -37.3807 93.8605
lradius 82.9814
lwrist -10.4811
lhand -24.8573 25.8592
lfingers 7.12502
lthumb 1.64938 55.8325
rfemur -25.8901 -7.30578 23.4393
rtibia 27.0973
rfoot -3.77035 -14.3092
rtoes 30.3399
lfemur 3.66293 5.08471 -24.0989
ltibia 29.6983
lfoot -1.02276 -5.03556
ltoes -28.7438
646
root -0.20171 17.9756 4.25512 178.102 230.258 186.521
lowerback 11.9738 0.136032 -3.129
upperback 2.37304 -0.249247 0.176038
thorax -4.21177 -0.104817 1.98908
lowerneck -14.3525 -5.00167 -12.2405
upperneck 35.3604 -8.19052 9.86723
head 15.899 -4.04506 4.9006
rclavicle 1.19271e-014 7.95139e-015
rhumerus -34.4449 20.6009 -93.7874
rradius 85.3443
rwrist 2.55679
rhand -18.9188 11.1905
rfingers 7.12502
rthumb 7.3835 -18.6607
lclavicle 1.19271e-014 7.95139e-015
lhumerus -28.5766 -36.8697 93.6623
lradius 81.8505
lwrist -10.1965
lhand -24.6839 25.9743
lfingers 7.12502
lthumb 1.8169 55.9463
rfemur -25.4462 -7.23194 23.7485
rtibia 27.3492
rfoot -4.18061 -13.8808
rtoes 29.6886
lfemur 3.11898 5.40696 -23.5973
ltibia 31.3561
lfoot 0.525284 -5.9402
ltoes -29.8114
647
root -0.292674 17.9723 4.30657 178.462 230.355 186.267
lowerback 11.9773 0.0142074 -3.04742
upperback 2.41083 -0.397028 0.247573
thorax -4.1657 -0.179935 2.04029
lowerneck -14.552 -4.93315 -12.1114
upperneck 35.5248 -8.09794 9.79231
head 16.0022 -3.99761 4.86732
rclavicle 5.76476e-015 -2.0276e-014
rhumerus -34.1383 20.0662 -93.5958
rradius 84.1087
rwrist 2.59255
rhand -18.5543 11.4811
rfingers 7.12502
rthumb 7.73534 -18.3574
lclavicle 5.76476e-015 -2.0276e-014
lhumerus -27.9505 -36.3378 93.3656
lradius 80.7035
lwrist -9.5515
lhand -24.5829 25.8905
lfingers 7.12502
lthumb 1.91438 55.8616
rfemur -25.3612 -7.28613 24.0169
rtibia 27.5388
rfoot -4.75306 -13.7073
rtoes 30.5902
lfemur 1.99171 5.76054 -23.0656
ltibia 33.1437
lfoot 1.98013 -7.4624
ltoes -31.5341
648
root -0.389023 17.9773 4.35762 178.744 230.478 186.078
lowerback 11.9904 -0.0510126 -3.02415
upperback 2.44547 -0.478757 0.296351
thorax -4.1317 -0.221659 2.09056
lowerneck -14.5734 -4.90402 -12.0063
upperneck 35.5421 -8.11099 9.83928
head 16.0142 -3.98439 4.86756
rclavicle 6.20208e-014 -1.19271e-014
rhumerus -33.842 19.4313 -93.3879
rradius 82.9059
rwrist 2.78006
rhand -18.5655 11.3976
rfingers 7.12502
rthumb 7.72458 -18.4413
lclavicle 6.20208e-014 -1.19271e-014
lhumerus -27.3849 -35.852 93.1298
lradius 79.5944
lwrist -8.99698
lhand -24.5323 25.9061
lfingers 7.12502
lthumb 1.96323 55.8768
rfemur -25.1881 -7.47037 24.2633
rtibia 27.6272
rfoot -5.13056 -13.3314
rtoes 31.1186
lfemur 0.744376 5.79313 -22.5705
ltibia 35.0914
lfoot 3.90865 -9.1438
ltoes -29.8826
649
root -0.484039 17.9904 4.40127 179.276 230.539 185.599
lowerback 12.0393 -0.123904 -2.82463
upperback 2.45155 -0.547199 0.395742
thorax -4.14926 -0.257189 2.09276
lowerneck -14.4325 -4.87297 -11.9374
upperneck 35.4801 -8.14802 9.95586
head 15.9568 -3.98083 4.89858
rclavicle 3.08116e-015 -7.95139e-016
rhumerus -33.511 18.6758 -93.1649
rradius 81.6808
rwrist 3.04312
rhand -19.0121 10.8042
rfingers 7.12502
rthumb 7.29348 -19.0501
lclavicle 3.08116e-015 -7.95139e-016
lhumerus -26.8501 -35.3729 92.9206
lradius 78.5234
lwrist -8.62391
lhand -24.3058 26.1844
lfingers 7.12502
lthumb 2.18203 56.1529
rfemur -24.9659 -7.50701 24.683
rtibia 27.5917
rfoot -5.49179 -13.196
rtoes 31.245
lfemur -0.693678 5.4761 -21.8412
ltibia 37.1512
lfoot 6.27466 -10.8046
ltoes -26.3666
650
root -0.573321 18.0034 4.44199 179.813 230.44 185.021
lowerback 12.2588 -0.264327 -2.58585
upperback 2.45552 -0.702167 0.553022
thorax -4.25818 -0.334452 2.14915
lowerneck -14.4628 -4.80795 -11.9257
upperneck 35.5723 -8.09152 10.0196
head 16.004 -3.95082 4.94049
rclavicle 1.64991e-014 3.57812e-015
rhumerus -33.2257 17.9583 -92.8753
rradius 80.5199
rwrist 3.27453
rhand -19.0879 10.511
rfingers 7.12502
rthumb 7.22035 -19.3458
lclavicle 1.64991e-014 3.57812e-015
lhumerus -26.2355 -34.887 92.6818
lradius 77.3571
lwrist -7.99057
lhand -24.0602 26.0046
lfingers 7.12502
lthumb 2.41917 55.9706
rfemur -24.5955 -7.47383 25.108
rtibia 27.428
rfoot -5.90111 -13.2274
rtoes 31.7378
lfemur -2.15088 4.93786 -21.06
ltibia 39.2519
lfoot 8.35477 -12.6472
ltoes -23.1391
651
root -0.660344 18.0093 4.48113 180.244 230.697 184.47
lowerback 12.5083 -0.295673 -2.43413
upperback 2.52336 -0.724453 0.713543
thorax -4.32287 -0.347424 2.23814
lowerneck -14.5604 -4.7229 -11.9519
upperneck 35.6874 -7.97489 10.0576
head 16.07 -3.90226 4.98987
rclavicle -5.46658e-015 -1.59028e-015
rhumerus -32.9301 17.4118 -92.5543
rradius 79.4923
rwrist 3.36105
rhand -19.1424 10.2637
rfingers 7.12502
rthumb 7.16766 -19.5949
lclavicle -5.46658e-015 -1.59028e-015
lhumerus -25.447 -34.3949 92.3603
lradius 76.1788
lwrist -6.90215
lhand -23.5894 25.8331
lfingers 7.12502
lthumb 2.87387 55.7935
rfemur -24.1413 -7.52909 25.6158
rtibia 27.1725
rfoot -6.02498 -12.9623
rtoes 31.3365
lfemur -3.53584 4.57279 -20.3618
ltibia 41.3642
lfoot 10.17 -14.3855
ltoes -18.5655
